<svg xmlns="http://www.w3.org/2000/svg" version="1.1" xmlns:xlink="http://www.w3.org/1999/xlink" xmlns:svgjs="http://svgjs.dev/svgjs" width="1000" height="1000" viewBox="0 0 1000 1000"><rect width="1000" height="1000" fill="#ffffff"></rect><g transform="matrix(0.7,0,0,0.7,149.57575757575756,333.0898561637082)"><svg viewBox="0 0 396 189" data-background-color="#ffffff" preserveAspectRatio="xMidYMid meet" height="477" width="1000" xmlns="http://www.w3.org/2000/svg" xmlns:xlink="http://www.w3.org/1999/xlink"><g id="tight-bounds" transform="matrix(1,0,0,1,0.2400000000000091,-0.02256009266498893)"><svg viewBox="0 0 395.52 189.04511806935724" height="189.04511806935724" width="395.52"><g><svg viewBox="0 0 397.4975999999999 189.990343659704" height="189.04511806935724" width="395.52"><g><rect width="397.4975999999999" height="4.713055203044397" x="0" y="120.67729116279071" fill="#ea3c12" opacity="1" stroke-width="0" stroke="transparent" fill-opacity="1" class="rect-o-0" data-fill-palette-color="secondary" rx="1%" id="o-0" data-palette-color="#ea3c12"></rect></g><g transform="matrix(1,0,0,1,0.9887999999999693,137.72818721150105)"><svg viewBox="0 0 395.52 52.26215644820295" height="52.26215644820295" width="395.52"><g id="textblocktransform"><svg viewBox="0 0 395.52 52.26215644820295" height="52.26215644820295" width="395.52" id="textblock"><g><svg viewBox="0 0 395.52 52.26215644820295" height="52.26215644820295" width="395.52"><g transform="matrix(1,0,0,1,0,0)"><svg width="395.52" viewBox="3.5999999046325684 -36.900001525878906 283.7799987792969 37.5" height="52.26215644820295" data-palette-color="#ea3c12"><path d="M4.3-33.1L3.6-36.4 25.45-36.4 25.45-32.95 8.95-32.95 8.95-20.4 21.75-20.4 21.75-17 8.95-17 8.95-3.45 25.45-3.45 25.45 0 4.3 0 4.3-33.1ZM29-36.4L34.35-36.4 56.1 0 50.65 0 29-36.4ZM28.05 0L50.25-36.4 55.25-36.4 33 0 28.05 0ZM67.5-36.4L72.05-36.4 84.65 0 79.5 0 75.3-12.5 63.3-12.5 59.05 0 54.85 0 67.5-36.4ZM74.15-15.9L69.35-30.3 64.45-15.9 74.15-15.9ZM89.19-36.4L95.94-36.4 104.79-12.75Q105.24-11.5 105.67-10.3 106.09-9.1 106.54-7.55L106.54-7.55Q106.94-9.05 107.34-10.23 107.74-11.4 108.19-12.6L108.19-12.6 116.99-36.4 123.04-36.4 123.04 0 118.44 0 118.44-26.35Q118.44-27.25 118.49-28.1 118.54-28.95 118.59-30L118.59-30Q118.29-29.2 117.94-28.35 117.59-27.5 117.29-26.65L117.29-26.65 107.49 0.05 104.69 0.05 94.79-26.9Q94.54-27.65 94.19-28.48 93.84-29.3 93.59-30L93.59-30Q93.69-29.05 93.72-28.25 93.74-27.45 93.74-26.6L93.74-26.6 93.74 0 89.94 0 89.94-33.1 89.19-36.4ZM146.29 0.6L146.29 0.6Q141.99 0.6 138.87-0.9 135.74-2.4 133.69-4.98 131.64-7.55 130.67-10.8 129.69-14.05 129.69-17.5L129.69-17.5Q129.69-21.25 130.79-24.73 131.89-28.2 134.02-30.95 136.14-33.7 139.34-35.3 142.54-36.9 146.74-36.9L146.74-36.9Q148.49-36.9 150.57-36.48 152.64-36.05 154.54-35.2 156.44-34.35 157.64-32.95L157.64-32.95 155.04-30.05Q153.59-31.65 151.17-32.52 148.74-33.4 146.64-33.4L146.64-33.4Q143.74-33.4 141.54-32.08 139.34-30.75 137.84-28.5 136.34-26.25 135.57-23.45 134.79-20.65 134.79-17.75L134.79-17.75Q134.79-13.25 136.24-9.98 137.69-6.7 140.34-4.93 142.99-3.15 146.59-3.15L146.59-3.15Q148.69-3.15 151.14-3.75 153.59-4.35 156.19-5.65L156.19-5.65 157.74-2.8Q156.29-1.75 154.27-1 152.24-0.25 150.14 0.18 148.04 0.6 146.29 0.6ZM162.89-33.1L162.19-36.4 167.54-36.4 167.54-3.45 182.84-3.45 182.84 0 162.89 0 162.89-33.1ZM200.94 0.55L200.94 0.55Q196.89 0.55 193.86-0.95 190.84-2.45 188.84-5.08 186.84-7.7 185.84-11.05 184.84-14.4 184.84-18.15L184.84-18.15Q184.84-21.9 185.81-25.28 186.79-28.65 188.79-31.28 190.79-33.9 193.84-35.4 196.89-36.9 200.99-36.9L200.99-36.9Q205.09-36.9 208.11-35.4 211.14-33.9 213.14-31.28 215.14-28.65 216.11-25.28 217.09-21.9 217.09-18.15L217.09-18.15Q217.09-14.4 216.09-11.03 215.09-7.65 213.09-5.05 211.09-2.45 208.06-0.95 205.04 0.55 200.94 0.55ZM200.99-2.85L200.99-2.85Q204.19-2.85 206.34-4.2 208.49-5.55 209.79-7.8 211.09-10.05 211.66-12.75 212.24-15.45 212.24-18.15L212.24-18.15Q212.24-20.85 211.66-23.55 211.09-26.25 209.79-28.48 208.49-30.7 206.31-32.05 204.14-33.4 200.99-33.4L200.99-33.4Q197.84-33.4 195.66-32.05 193.49-30.7 192.21-28.45 190.94-26.2 190.36-23.5 189.79-20.8 189.79-18.1L189.79-18.1Q189.79-15.4 190.36-12.73 190.94-10.05 192.21-7.8 193.49-5.55 195.66-4.2 197.84-2.85 200.99-2.85ZM222.93-36.4L228.43-36.4 228.43-12.2Q228.43-7.95 230.53-5.4 232.63-2.85 237.13-2.85L237.13-2.85Q241.78-2.85 244.16-5.65 246.53-8.45 246.53-12.9L246.53-12.9 246.53-36.4 250.38-36.4 250.38-12.9Q250.38-8.7 248.81-5.68 247.23-2.65 244.23-1.03 241.23 0.6 236.93 0.6L236.93 0.6Q230.68 0.6 227.18-2.65 223.68-5.9 223.68-12.2L223.68-12.2 223.68-33.1 222.93-36.4ZM287.38-18.1L287.38-18.1Q287.38-12.85 285.61-8.78 283.83-4.7 280.18-2.35 276.53 0 270.88 0L270.88 0 259.03 0 259.03-33.1Q259.03-33.15 258.86-33.9 258.68-34.65 258.53-35.45 258.38-36.25 258.33-36.4L258.33-36.4 267.68-36.4Q273.78-36.4 278.18-34.58 282.58-32.75 284.98-28.73 287.38-24.7 287.38-18.1ZM282.53-18.2L282.53-18.2Q282.53-22.15 281.56-24.95 280.58-27.75 278.66-29.53 276.73-31.3 273.91-32.13 271.08-32.95 267.33-32.95L267.33-32.95 263.68-32.95 263.68-3.45 270.28-3.45Q274.83-3.45 277.5-5.45 280.18-7.45 281.36-10.8 282.53-14.15 282.53-18.2Z" opacity="1" transform="matrix(1,0,0,1,0,0)" fill="#ea3c12" class="wordmark-text-0" data-fill-palette-color="primary" id="text-0"></path></svg></g></svg></g></svg></g></svg></g><g transform="matrix(1,0,0,1,92.53339256270154,0)"><svg viewBox="0 0 212.43081487459685 108.33945031712474" height="108.33945031712474" width="212.43081487459685"><g><svg xmlns:dc="http://purl.org/dc/elements/1.1/" xmlns:cc="http://creativecommons.org/ns#" xmlns:rdf="http://www.w3.org/1999/02/22-rdf-syntax-ns#" xmlns:svg="http://www.w3.org/2000/svg" xmlns="http://www.w3.org/2000/svg" xmlns:sodipodi="http://sodipodi.sourceforge.net/DTD/sodipodi-0.dtd" xmlns:inkscape="http://www.inkscape.org/namespaces/inkscape" version="1.0" x="8" y="0" viewBox="0 0 100 55.15399932861328" enable-background="new 0 0 100 55.154" xml:space="preserve" width="196.43081487459685" height="108.33945031712474" class="icon-icon-0" data-fill-palette-color="accent" id="icon-0"><path d="M77.959 55.154l-66.677 0C5.061 55.154 0 50.093 0 43.873 0 38.595 3.643 34.152 8.546 32.927 10.734 27.458 15.794 23.541 21.695 22.838 22.317 10.14 32.843 0 45.693 0c9.417 0 17.822 5.536 21.723 13.756 3.203-1.75 6.812-2.682 10.543-2.682 12.153 0 22.041 9.887 22.041 22.04 0 12.153-9.887 22.04-22.041 22.04z" fill="#ea3c12" data-fill-palette-color="accent"></path></svg></g></svg></g><g><rect width="16.000272562701568" height="4.713055203044397" y="102.62639511408035" x="304.9642074372984" fill="#ea3c12" data-fill-palette-color="secondary"></rect><rect width="16.000272562701568" height="4.713055203044397" y="102.62639511408035" x="76.53311999999997" fill="#ea3c12" data-fill-palette-color="secondary"></rect></g></svg></g><defs></defs></svg><rect width="395.52" height="189.04511806935724" fill="none" stroke="none" visibility="hidden"></rect></g></svg></g></svg>